# xmcd CD database file
#
# Track frame offsets:
#	182
#	15992
#	29055
#	42307
#	55035
#	70792
#	86212
#	102542
#	118430
#	132150
#	147155
#	160892
#	175162
#	188857
#	203502
#	216992
#	230360
#	244347
#	256725
#	270637
#	284945
#	298830
#	311455
#	325312
#
# Disc length: 4501 seconds
#
# Revision: 0
# Processed by: cddbd v1.5.1PL0 Copyright (c) Steve Scherf et al.
# Submitted via: CDex 1.51
#
DISCID=75119318
DTITLE=Walter Vincson - Complete Recorded Works in Chronological Order
DYEAR=1991
DGENRE=Blues
TTITLE0=Mad Dog Blues
TTITLE1=Your Friends Gonna Use It Too - Part 1
TTITLE2=Overtime Blues
TTITLE3=Your Friends Gonna Use It Too - Part 2
TTITLE4=Mississippi Yodelin' Blues
TTITLE5=Working Man's Blues
TTITLE6=Sheiks Special
TTITLE7=Dear Little Girl
TTITLE8=Mississippi Low Down
TTITLE9=That's It
TTITLE10=Can't Anybody Tell Me Blues
TTITLE11=Black Widow Spider
TTITLE12=When The Breath Bids The Body Goodbye
TTITLE13=I Ain't Gonna Have It
TTITLE14=Losin' Blues
TTITLE15=The Wrong Man
TTITLE16=How Did It Happen
TTITLE17=Rats Been On My Cheese
TTITLE18=Every Dog Must Have His Day
TTITLE19=You Know What You Promised Me
TTITLE20=Gulf Coast Bay
TTITLE21=Rosa Lee Blues
TTITLE22=Can't Get A Word In Edgeways
TTITLE23=She's Leaving Me
EXTD=YEAR: 1991
EXTT0=
EXTT1=
EXTT2=
EXTT3=
EXTT4=
EXTT5=
EXTT6=
EXTT7=
EXTT8=
EXTT9=
EXTT10=
EXTT11=
EXTT12=
EXTT13=
EXTT14=
EXTT15=
EXTT16=
EXTT17=
EXTT18=
EXTT19=
EXTT20=
EXTT21=
EXTT22=
EXTT23=
PLAYORDER=
